# xmcd CD database file
#
# Track frame offsets:
#	150
#	23070
#	37035
#	58757
#	72872
#	93305
#	132895
#	146062
#	161250
#
# Disc length: 2467 seconds
#
# Revision: 2
# Processed by: cddbd v1.4b41PL1 Copyright (c) Steve Scherf et al.
# Submitted via: Feurio! 1.52 - http://www.feurio.com
#
DISCID=7709a109
DTITLE=Joan Baez - Recently
DYEAR=1900
DGENRE=
TTITLE0=Brothers in Arms
TTITLE1=Recently
TTITLE2=Asimbonanga
TTITLE3=The Moon is a Harsh Mistress
TTITLE4=James and the Gang
TTITLE5=Let Us Break Bread Together/Freedom
TTITLE6=MLK
TTITLE7=Do Right Woman, Do Right Man
TTITLE8=Biko
EXTD=
EXTT0=
EXTT1=
EXTT2=
EXTT3=
EXTT4=
EXTT5=
EXTT6=
EXTT7=
EXTT8=
PLAYORDER=
